<?xml version="1.0" encoding="utf-8"?>
<!-- Generator: Adobe Illustrator 21.1.0, SVG Export Plug-In . SVG Version: 6.00 Build 0)  -->
<svg version="1.1" id="Layer_1" xmlns="http://www.w3.org/2000/svg" xmlns:xlink="http://www.w3.org/1999/xlink" x="0px" y="0px"
	 viewBox="0 0 697 806" enable-background="new 0 0 697 806" xml:space="preserve">
<g>
	<path d="M422.413,125.968l18.51,10.406c0,0,25.943-27.284,37.204-32.372C478.126,104.002,444.784,111.901,422.413,125.968z"/>
	<path d="M431.288,205.054c-13.284-7.468-30.106-2.753-37.573,10.53c-7.468,13.283-2.753,30.106,10.531,37.573
		c13.283,7.468,30.106,2.753,37.573-10.531C449.286,229.344,444.572,212.522,431.288,205.054z M426.916,250.501
		c-0.68,0.71-1.769,0.848-2.793,1.092c-2.669,0.636-5.452,0.787-8.174,0.449c-0.72-0.089-4.042-0.144-4.221-1.028
		c-0.031-0.155,0.015-0.315,0.061-0.466c1.825-6.037,2.781-11.978,3.303-18.262c0.112-1.343,0.142-2.847-0.755-3.853
		c-1.168-1.31-3.23-1.094-4.919-1.57c-3.206-0.902-5.031-4.503-4.99-7.833c0.026-2.156,0.806-4.284,1.618-6.254
		c0.425-1.032,0.894-2.046,1.374-3.054c0.923-1.941,3.456-2.425,5.395-2.94c3.228-0.857,7.127-1.176,10.357-0.137
		c-1.279,2.471-2.177,5.634-2.211,8.434c-0.041,3.33,1.785,6.931,4.99,7.833c1.69,0.476,3.751,0.26,4.92,1.57
		c0.897,1.006,0.866,2.51,0.754,3.853c-0.334,4.021-0.84,8.031-1.689,11.978c-0.422,1.962-0.925,3.906-1.505,5.827
		c-0.382,1.265-0.554,2.601-1.131,3.803C427.195,250.162,427.065,250.345,426.916,250.501z"/>
	<path d="M444.901,427.062c-0.699-10.872-4.665-22.973-13.486-30.019l-0.11,0.102c16.963-18.242,30.706-39.547,42.244-61.491
		c8.144-15.489,15.232-31.531,21.402-47.905c11.578-30.725,20.858-62.262,21.566-95.291c0.377-17.566-0.922-35.18-4.449-52.407
		c-3.57-17.44-15.226-51.491-15.226-51.491c-17.589,2.899-35.246,7.685-52.001,13.698c-16.55,5.94-32.274,13.984-47.085,23.435
		c-27.85,17.771-49.971,42.089-70.203,67.948c-10.782,13.78-20.804,28.173-29.804,43.181c-12.751,21.262-23.81,44.076-30.579,68.048
		l0.03-0.147c-10.604-3.874-23.004-0.974-32.655,4.079c-20.041,10.492-33.79,30.819-43.746,50.512
		c-12.389,24.504-21.055,50.843-29.135,77.019c-0.399,1.293-0.208,3.363,1.135,3.189c0.576-0.074,0.969-0.606,1.259-1.109
		c7.386-12.789,14.026-26.527,22.747-38.582c9.563-13.22,20.174-25.682,31.711-37.221c5.958-5.959,12.359-11.801,20.195-14.899
		c3.633-1.436,7.706-2.241,11.445-1.109c3.739,1.131,6.948,4.626,6.748,8.527l-6.298,55.174l39.463,22.185
		c-8.021,21.062-15.821,43.133-22.854,64.633c0,0,29.335-35.419,43.161-53.217l39.463,22.185l43.865-34.055
		c3.229-2.199,7.882-1.273,10.792,1.333c2.91,2.607,4.339,6.504,5,10.354c1.426,8.305-0.239,16.81-2.233,24.997
		c-3.862,15.853-8.995,31.395-15.319,46.436c-5.767,13.716-14.053,26.528-21.141,39.485c-0.279,0.509-0.529,1.122-0.293,1.652
		c0.55,1.237,2.417,0.325,3.315-0.688c18.164-20.507,36.163-41.6,50.659-64.919C436.132,471.946,446.352,449.636,444.901,427.062z
		 M282.328,315.277c0,0,58.939-138.527,124.754-177.652l16.475,9.262C423.558,146.887,350.22,195.866,282.328,315.277z
		 M316.891,443.075l-3.471-1.951l21.503-26.429c6.616-8.668,13.315-17.478,17.332-27.615c1.738-4.384,2.916-9.024,3.401-13.717
		c0.706-6.83-0.104-14.106-4.282-19.769c-4.631-6.277-15.118-2.586-20.487,0.501c-5.587,3.212-10.427,7.808-14.299,12.934
		c-6.572,8.701-10.618,19.002-14.585,29.159l-11.36,32.132l-4.121-2.317c0,0,9.872-40.411,26.878-62.537
		c17.006-22.126,30.793-19.229,37.761-15.883c6.968,3.346,15.24,16.561,6.124,41.41
		C348.169,413.842,316.891,443.075,316.891,443.075z M397.154,265.772c-20.25-11.384-27.437-37.029-16.053-57.279
		s37.029-27.437,57.279-16.053c20.25,11.384,27.437,37.029,16.053,57.279S417.404,277.156,397.154,265.772z M407.541,126.281
		c12.894-8.228,26.582-15.23,40.991-20.402c14.586-5.235,29.958-9.401,45.27-11.925c0,0,10.147,29.644,13.255,44.826
		c3.07,14.997,4.201,30.331,3.873,45.623L407.541,126.281z"/>
	<path d="M328.617,477.239c-0.971-3.655-2.279-6.96-3.873-9.949c6.056,23.739-3.14,51.531-7.897,74.831
		c-3.147,15.414-8.223,31.755-20.873,41.107c-1.119,0.827-2.457,1.626-3.818,1.337c-1.52-0.323-2.43-1.853-3.069-3.27
		c-2.647-6.836-4.646-13.111-6.27-20.344c-0.485-2.162-0.983-4.357-2.057-6.296c-0.268-0.484-0.584-0.963-1.042-1.273
		c-0.865-0.586-2.069-0.431-2.967,0.101c-3.527,2.09-5.449,8.205-7.344,11.624c-2.668,4.813-5.336,9.626-8.004,14.438
		c-5.336,9.626-10.672,19.251-16.008,28.877c-1.853,3.342-5.53,7.224-8.751,5.167c-1.103-0.704-1.718-1.95-2.236-3.151
		c-4.752-11.016-5.732-23.618-2.738-35.236c0.766-2.972,1.792-5.98,1.471-9.032c-0.322-3.052-2.506-6.191-5.57-6.365
		c-2.539-0.144-4.709,1.694-6.578,3.417c-12.252,11.298-24.504,22.596-36.756,33.894c-2.279,2.102-4.859,4.329-7.959,4.374
		c-6.616,0.095-8.912-8.822-8.334-15.414c1.089-12.412,4.748-23.381,9.706-34.567c4.721-10.651,11.782-19.846,17.05-30.191
		c0.427-0.838,0.849-1.778,0.607-2.686c-1.273-4.776-9.057,1.149-11.189,2.21c-4.65,2.314-9.558,4.359-14.499,5.959
		c-2.647,0.857-5.563,1.708-8.139,0.658c-5.961-2.43-4.261-11.319-1.157-16.959c14.547-26.426,82.303-65.95,109.829-78.483
		c-3.023,0.964-48.767,20.022-51.455,21.074c-37.064,14.51-71.28,42.486-90.585,77.555c-3.789,6.883-5.864,17.732,1.412,20.697
		c3.144,1.282,6.703,0.243,9.934-0.803c6.03-1.952,12.02-4.448,17.695-7.272c2.602-1.295,12.102-8.526,13.656-2.697
		c0.295,1.108-0.22,2.256-0.741,3.278c-6.429,12.625-15.047,23.847-20.808,36.847c-6.051,13.652-10.518,27.038-11.846,42.187
		c-0.706,8.045,2.096,18.928,10.171,18.812c3.783-0.054,6.932-2.773,9.714-5.338c14.953-13.788,29.906-27.577,44.859-41.365
		c2.281-2.104,4.929-4.347,8.028-4.171c3.74,0.212,6.405,4.043,6.797,7.768c0.393,3.725-0.86,7.396-1.795,11.023
		c-3.653,14.179-2.458,29.56,3.342,43.004c0.632,1.466,1.383,2.987,2.729,3.846c3.93,2.511,8.419-2.227,10.68-6.306
		c6.512-11.748,13.025-23.495,19.537-35.243c3.256-5.874,6.512-11.748,9.769-17.622c2.313-4.173,4.658-11.637,8.964-14.187
		c1.097-0.65,2.566-0.838,3.622-0.124c0.56,0.379,0.944,0.963,1.272,1.554c1.31,2.366,1.918,5.045,2.51,7.684
		c1.982,8.827,4.421,16.486,7.652,24.829c0.78,1.729,1.891,3.597,3.746,3.991c1.661,0.352,3.294-0.622,4.66-1.632
		c15.439-11.413,21.634-31.357,25.474-50.169C324.993,540.583,336.356,506.358,328.617,477.239z"/>
	<path d="M249.954,448.886c-23.086,9.038-44.397,26.463-56.422,48.306c-2.36,4.287-3.652,11.044,0.879,12.892
		c1.958,0.798,4.175,0.151,6.187-0.5c3.756-1.216,7.487-2.771,11.022-4.53c1.621-0.806,7.538-5.31,8.506-1.68
		c0.184,0.69-0.137,1.405-0.461,2.042c-4.004,7.864-9.372,14.854-12.961,22.95c-3.769,8.503-6.551,16.841-7.379,26.276
		c-0.439,5.011,1.306,11.79,6.335,11.717c2.356-0.034,4.318-1.727,6.05-3.325c9.314-8.588,18.627-17.177,27.941-25.765
		c1.421-1.31,3.07-2.707,5-2.598c2.329,0.132,3.989,2.518,4.234,4.839c0.245,2.32-0.536,4.607-1.118,6.866
		c-2.276,8.831-1.531,18.412,2.081,26.785c0.394,0.913,0.862,1.86,1.7,2.396c2.448,1.564,5.244-1.387,6.652-3.928
		c4.056-7.317,8.113-14.634,12.169-21.951c2.028-3.659,4.056-7.317,6.085-10.976c1.441-2.599,2.902-7.248,5.583-8.837
		c0.683-0.405,1.598-0.522,2.256-0.077c0.349,0.236,0.588,0.599,0.792,0.968c0.816,1.473,1.194,3.142,1.563,4.786
		c1.234,5.498,2.754,10.268,4.766,15.465c0.486,1.077,1.178,2.24,2.333,2.486c1.035,0.22,2.052-0.388,2.903-1.016
		c9.616-7.109,13.475-19.531,15.867-31.248c3.644-17.848,10.721-39.165,5.901-57.302c-0.6-2.256-1.423-4.278-2.404-6.126
		c3.737,14.771-1.969,32.049-4.927,46.539c-1.96,9.6-5.122,19.779-13.001,25.604c-0.697,0.515-1.53,1.013-2.378,0.833
		c-0.947-0.201-1.514-1.154-1.912-2.037c-1.649-4.258-2.894-8.166-3.905-12.671c-0.302-1.347-0.612-2.714-1.281-3.922
		c-0.167-0.302-0.363-0.6-0.649-0.793c-0.539-0.365-1.288-0.268-1.848,0.063c-2.197,1.302-3.394,5.111-4.574,7.241
		c-1.662,2.998-3.324,5.995-4.985,8.993c-3.324,5.996-6.647,11.991-9.971,17.986c-1.154,2.082-3.445,4.5-5.45,3.218
		c-0.687-0.439-1.07-1.215-1.393-1.963c-2.96-6.861-3.57-14.711-1.705-21.947c0.477-1.851,1.116-3.725,0.916-5.626
		c-0.2-1.901-1.561-3.856-3.469-3.964c-1.581-0.09-2.933,1.055-4.097,2.129c-7.631,7.037-15.263,14.074-22.894,21.111
		c-1.42,1.309-3.026,2.697-4.957,2.724c-4.121,0.059-5.551-5.495-5.191-9.601c0.678-7.731,2.958-14.563,6.046-21.53
		c2.94-6.634,7.338-12.361,10.62-18.805c0.266-0.522,0.529-1.108,0.378-1.673c-0.793-2.974-5.641,0.716-6.969,1.377
		c-2.896,1.441-5.953,2.715-9.031,3.711c-1.649,0.534-3.465,1.064-5.07,0.41c-3.713-1.514-2.654-7.05-0.72-10.563
		c9.053-16.445,43.622-37.742,57.626-47.758C269.359,437.481,251.611,448.238,249.954,448.886z"/>
</g>
<path d="M120.324,11.309l23.93,48.488c0.994,2.014,2.915,3.41,5.137,3.732l53.51,7.775c5.596,0.813,7.831,7.691,3.781,11.638
	l-38.72,37.743c-1.608,1.567-2.342,3.826-1.962,6.039l9.141,53.293c0.956,5.574-4.894,9.824-9.9,7.193l-47.86-25.162
	c-1.988-1.045-4.362-1.045-6.35,0L63.17,187.21c-5.006,2.632-10.856-1.619-9.9-7.193l9.141-53.293
	c0.38-2.213-0.354-4.472-1.962-6.039l-38.72-37.743c-4.05-3.947-1.815-10.825,3.781-11.638l53.51-7.775
	c2.222-0.323,4.143-1.719,5.137-3.732l23.93-48.488C110.59,6.238,117.821,6.238,120.324,11.309z"/>
<path d="M568.875,590.624l23.93,48.488c0.994,2.014,2.915,3.41,5.137,3.732l53.51,7.775c5.596,0.813,7.831,7.691,3.781,11.638
	L616.514,700c-1.608,1.568-2.342,3.826-1.962,6.039l9.141,53.293c0.956,5.574-4.894,9.824-9.9,7.193l-47.86-25.162
	c-1.988-1.045-4.362-1.045-6.35,0l-47.86,25.162c-5.005,2.632-10.856-1.619-9.9-7.193l9.141-53.293
	c0.38-2.213-0.354-4.472-1.962-6.039l-38.72-37.743c-4.05-3.947-1.815-10.825,3.781-11.638l53.51-7.775
	c2.222-0.323,4.143-1.719,5.137-3.732l23.93-48.488C559.141,585.553,566.373,585.553,568.875,590.624z"/>
<path d="M326.399,38.66l5.923,37.741c0.246,1.567,1.247,2.913,2.678,3.599l34.447,16.517c3.603,1.727,3.661,6.836,0.098,8.645
	l-34.063,17.295c-1.415,0.718-2.385,2.087-2.596,3.659l-5.064,37.865c-0.53,3.96-5.37,5.594-8.191,2.765l-26.975-27.052
	c-1.12-1.123-2.722-1.624-4.282-1.338l-37.577,6.885c-3.93,0.72-6.98-3.379-5.161-6.936l17.392-34.014
	c0.722-1.413,0.703-3.09-0.051-4.486l-18.16-33.61c-1.899-3.515,1.057-7.682,5.002-7.052l37.724,6.03
	c1.567,0.25,3.156-0.286,4.251-1.435l26.353-27.658C320.903,33.189,325.78,34.713,326.399,38.66z"/>
<path d="M118.537,633.793l5.923,37.741c0.246,1.567,1.247,2.913,2.678,3.599l34.447,16.517c3.603,1.727,3.661,6.836,0.098,8.645
	L127.62,717.59c-1.415,0.718-2.385,2.087-2.596,3.659l-5.064,37.865c-0.53,3.96-5.37,5.594-8.191,2.765l-26.975-27.052
	c-1.12-1.123-2.722-1.624-4.282-1.338l-37.577,6.885c-3.93,0.72-6.98-3.379-5.161-6.936l17.392-34.014
	c0.722-1.413,0.703-3.09-0.051-4.486l-18.16-33.61c-1.899-3.515,1.057-7.682,5.002-7.052l37.724,6.03
	c1.567,0.25,3.156-0.286,4.251-1.435l26.353-27.658C113.041,628.323,117.918,629.846,118.537,633.793z"/>
<path d="M136.753,265.89l-6.642,29.707c-0.276,1.234,0.073,2.524,0.933,3.451l20.706,22.313c2.166,2.334,0.715,6.137-2.454,6.437
	l-30.306,2.863c-1.259,0.119-2.378,0.85-2.994,1.954l-14.822,26.588c-1.55,2.781-5.616,2.577-6.88-0.345L82.206,330.92
	c-0.502-1.16-1.543-1.999-2.783-2.243l-29.867-5.881c-3.124-0.615-4.186-4.545-1.798-6.65l22.835-20.129
	c0.948-0.836,1.425-2.085,1.274-3.34l-3.637-30.223c-0.38-3.161,3.029-5.386,5.769-3.765l26.201,15.497
	c1.088,0.644,2.423,0.711,3.57,0.179l27.62-12.798C134.278,260.228,137.448,262.783,136.753,265.89z"/>
<path d="M432.972,616.566l-6.642,29.707c-0.276,1.234,0.073,2.524,0.933,3.451l20.706,22.313c2.166,2.334,0.715,6.138-2.454,6.437
	l-30.306,2.863c-1.259,0.119-2.378,0.849-2.994,1.954l-14.822,26.588c-1.55,2.781-5.616,2.577-6.88-0.345l-12.088-27.938
	c-0.502-1.16-1.543-1.999-2.783-2.243l-29.867-5.881c-3.124-0.615-4.186-4.545-1.798-6.65l22.835-20.129
	c0.948-0.836,1.425-2.085,1.274-3.34l-3.637-30.223c-0.38-3.161,3.029-5.386,5.769-3.765l26.201,15.497
	c1.088,0.644,2.423,0.711,3.57,0.179l27.62-12.798C430.497,610.904,433.667,613.459,432.972,616.566z"/>
<path d="M662.608,204.983l-15.743,26.054c-0.654,1.082-0.733,2.417-0.213,3.569l12.538,27.739c1.311,2.901-1.273,6.046-4.374,5.323
	l-29.643-6.921c-1.231-0.287-2.525,0.049-3.46,0.901l-22.507,20.496c-2.354,2.144-6.144,0.658-6.414-2.515l-2.578-30.331
	c-0.107-1.26-0.827-2.386-1.925-3.012l-26.448-15.072c-2.766-1.576-2.524-5.64,0.41-6.877l28.05-11.824
	c1.165-0.491,2.014-1.524,2.27-2.762l6.161-29.811c0.644-3.118,4.584-4.143,6.667-1.735l19.914,23.023
	c0.827,0.956,2.072,1.444,3.328,1.305l30.256-3.352C662.062,198.828,664.254,202.258,662.608,204.983z"/>
<path d="M259.674,217.963l-8.671,18.087c-0.36,0.751-0.328,1.631,0.087,2.354l9.983,17.397c1.044,1.819-0.451,4.046-2.531,3.768
	l-19.881-2.658c-0.826-0.11-1.653,0.193-2.212,0.81l-13.46,14.871c-1.408,1.555-3.988,0.821-4.366-1.242l-3.616-19.729
	c-0.15-0.819-0.694-1.512-1.454-1.853l-18.302-8.206c-1.914-0.858-2.013-3.539-0.168-4.536l17.646-9.536
	c0.733-0.396,1.224-1.127,1.313-1.956l2.149-19.942c0.225-2.086,2.743-3.008,4.262-1.561l14.522,13.836
	c0.603,0.575,1.45,0.816,2.266,0.645l19.63-4.119C258.925,213.961,260.581,216.071,259.674,217.963z"/>
<path d="M83.706,465.609l-8.671,18.087c-0.36,0.751-0.328,1.631,0.087,2.354l9.983,17.397c1.044,1.819-0.451,4.046-2.531,3.768
	l-19.881-2.658c-0.826-0.11-1.653,0.193-2.212,0.81l-13.46,14.871c-1.408,1.555-3.988,0.821-4.366-1.242l-3.616-19.729
	c-0.15-0.819-0.694-1.512-1.454-1.853l-18.302-8.206c-1.914-0.858-2.013-3.539-0.168-4.536l17.646-9.536
	c0.733-0.396,1.224-1.127,1.313-1.956l2.149-19.942c0.225-2.086,2.743-3.008,4.262-1.561l14.522,13.836
	c0.603,0.575,1.45,0.816,2.266,0.645l19.63-4.119C82.957,461.608,84.613,463.718,83.706,465.609z"/>
<path d="M573.671,323.913L565,342c-0.36,0.751-0.328,1.631,0.087,2.354l9.983,17.397c1.044,1.819-0.451,4.046-2.531,3.768
	l-19.881-2.658c-0.826-0.11-1.653,0.193-2.212,0.81l-13.46,14.871c-1.408,1.555-3.988,0.821-4.366-1.242l-3.616-19.729
	c-0.15-0.819-0.694-1.512-1.454-1.853l-18.302-8.206c-1.914-0.858-2.013-3.539-0.168-4.536l17.646-9.536
	c0.733-0.396,1.224-1.127,1.313-1.956l2.149-19.942c0.225-2.086,2.744-3.008,4.262-1.561l14.522,13.836
	c0.603,0.575,1.45,0.816,2.266,0.645l19.63-4.119C572.922,319.911,574.578,322.022,573.671,323.913z"/>
<path d="M287.432,705.452l-8.671,18.087c-0.36,0.751-0.328,1.631,0.087,2.354l9.983,17.397c1.044,1.819-0.451,4.046-2.531,3.768
	L266.42,744.4c-0.826-0.11-1.653,0.193-2.212,0.81l-13.46,14.871c-1.408,1.555-3.988,0.821-4.366-1.242l-3.616-19.729
	c-0.15-0.819-0.694-1.512-1.454-1.853l-18.302-8.206c-1.914-0.858-2.013-3.539-0.168-4.536l17.646-9.536
	c0.733-0.396,1.224-1.127,1.313-1.956l2.149-19.942c0.225-2.086,2.743-3.008,4.262-1.561l14.522,13.836
	c0.603,0.575,1.45,0.816,2.266,0.645l19.63-4.119C286.683,701.45,288.339,703.561,287.432,705.452z"/>
<path d="M619.766,58.439l-8.671,18.087c-0.36,0.751-0.328,1.631,0.087,2.354l9.983,17.397c1.044,1.819-0.451,4.046-2.531,3.768
	l-19.881-2.658c-0.826-0.11-1.653,0.193-2.212,0.81l-13.46,14.871c-1.408,1.555-3.988,0.821-4.366-1.242l-3.616-19.729
	c-0.15-0.819-0.694-1.512-1.454-1.853l-18.302-8.206c-1.914-0.858-2.013-3.539-0.168-4.536l17.646-9.536
	c0.733-0.396,1.224-1.127,1.313-1.956l2.149-19.942c0.225-2.086,2.744-3.008,4.262-1.561l14.522,13.836
	c0.603,0.575,1.45,0.816,2.266,0.645l19.63-4.119C619.017,54.437,620.673,56.548,619.766,58.439z"/>
<path d="M627.642,450.293L621,480c-0.276,1.234,0.073,2.524,0.933,3.451l20.706,22.313c2.166,2.334,0.715,6.137-2.454,6.437
	l-30.306,2.863c-1.259,0.119-2.378,0.849-2.994,1.954l-14.822,26.588c-1.55,2.781-5.616,2.577-6.88-0.345l-12.088-27.938
	c-0.502-1.16-1.543-1.999-2.783-2.244l-29.867-5.881c-3.124-0.615-4.186-4.545-1.798-6.65l22.835-20.129
	c0.948-0.836,1.425-2.085,1.274-3.34l-3.637-30.223c-0.38-3.161,3.029-5.386,5.769-3.765l26.201,15.497
	c1.088,0.644,2.423,0.711,3.57,0.179l27.62-12.798C625.167,444.631,628.337,447.186,627.642,450.293z"/>
</svg>
